<svg width="120" height="120" viewBox="0 0 120 120" fill="none" xmlns="http://www.w3.org/2000/svg">
  <defs>
    <linearGradient id="logoGradient" x1="28" y1="12" x2="104" y2="116" gradientUnits="userSpaceOnUse">
      <stop offset="0" stop-color="#2667FF" />
      <stop offset="1" stop-color="#7C3BFF" />
    </linearGradient>
  </defs>
  <path
    d="M58 10C33.1472 10 13 30.1472 13 55C13 79.8528 33.1472 100 58 100C69.5005 100 79.7042 95.9805 88.2682 88.6375C91.2515 86.0923 91.2804 81.523 88.3396 78.5822L73.0209 63.2635C70.0801 60.3227 65.5108 60.3515 62.9656 63.3348C59.4946 67.3609 54.2229 69.9991 48.25 69.9991C37.2417 69.9991 28.25 61.0074 28.25 50C28.25 38.9926 37.2417 30.0009 48.25 30.0009C54.2229 30.0009 59.4946 32.6391 62.9656 36.6652C65.5108 39.6485 70.0801 39.6773 73.0209 36.7365L88.3396 21.4178C91.2804 18.477 91.2515 13.9077 88.2682 11.3625C79.7042 4.01953 69.5005 0 58 0C25.9675 0 0 25.9675 0 58C0 90.0325 25.9675 116 58 116C90.0325 116 116 90.0325 116 58C116 54.6863 115.725 51.4446 115.202 48.2941C114.502 43.9711 110.351 41.2535 106.321 42.8473L86.1527 50.7886C82.1228 52.3822 80.0135 56.876 81.6071 60.9059C82.1301 62.2256 82.5 63.642 82.5 65.1229C82.5 76.1313 73.5083 85.1229 62.5 85.1229C51.4917 85.1229 42.5 76.1313 42.5 65.1229C42.5 54.1146 51.4917 45.1229 62.5 45.1229C66.5784 45.1229 70.3714 46.3696 73.4871 48.4935C77.0053 50.9039 81.7368 50.2606 84.6286 47.2373L106.136 24.5234C108.952 21.5874 108.469 16.8479 105.132 14.6936C91.8611 6.15919 75.7404 2 58 2Z"
    fill="url(#logoGradient)"
  />
  <circle cx="82" cy="24" r="12" fill="#FF3B3B" />
</svg>

